<svg width="1200" height="630" viewBox="0 0 1200 630" fill="none" xmlns="http://www.w3.org/2000/svg">
  <defs>
    <linearGradient id="bg" x1="0" y1="0" x2="1200" y2="630" gradientUnits="userSpaceOnUse">
      <stop stop-color="#0B1020"/>
      <stop offset="1" stop-color="#1A3A8A"/>
    </linearGradient>
    <linearGradient id="card" x1="0" y1="0" x2="1" y2="1">
      <stop stop-color="#1E293B"/>
      <stop offset="1" stop-color="#0F172A"/>
    </linearGradient>
    <linearGradient id="accent" x1="0" y1="0" x2="1" y2="1">
      <stop stop-color="#22D3EE"/>
      <stop offset="1" stop-color="#A78BFA"/>
    </linearGradient>
    <filter id="glow" x="-20%" y="-20%" width="140%" height="140%">
      <feGaussianBlur stdDeviation="16" result="blur"/>
      <feMerge>
        <feMergeNode in="blur"/>
        <feMergeNode in="SourceGraphic"/>
      </feMerge>
    </filter>
  </defs>

  <rect width="1200" height="630" rx="24" fill="url(#bg)"/>
  <circle cx="190" cy="120" r="140" fill="#22D3EE" opacity="0.14"/>
  <circle cx="1030" cy="520" r="180" fill="#A78BFA" opacity="0.18"/>

  <g transform="translate(72 68)">
    <rect x="0" y="0" width="720" height="410" rx="24" fill="url(#card)" stroke="#334155"/>
    <rect x="20" y="20" width="680" height="40" rx="12" fill="#111827" stroke="#374151"/>
    <circle cx="44" cy="40" r="6" fill="#EF4444"/>
    <circle cx="66" cy="40" r="6" fill="#F59E0B"/>
    <circle cx="88" cy="40" r="6" fill="#10B981"/>

    <rect x="40" y="86" width="640" height="280" rx="16" fill="#0B1222" stroke="#23324C"/>
    <rect x="70" y="118" width="270" height="28" rx="6" fill="#1E293B"/>
    <rect x="70" y="160" width="460" height="18" rx="5" fill="#1E293B"/>
    <rect x="70" y="188" width="420" height="18" rx="5" fill="#1E293B"/>
    <rect x="70" y="216" width="390" height="18" rx="5" fill="#1E293B"/>

    <rect x="398" y="152" width="240" height="150" rx="14" fill="#0F172A" stroke="#38BDF8" stroke-width="2.5" stroke-dasharray="10 8"/>
    <text x="418" y="192" fill="#7DD3FC" font-family="ui-monospace, SFMono-Regular, Menlo, monospace" font-size="16">```markdown</text>
    <text x="418" y="220" fill="#E2E8F0" font-family="ui-monospace, SFMono-Regular, Menlo, monospace" font-size="14">UI snippet:</text>
    <text x="418" y="246" fill="#E2E8F0" font-family="ui-monospace, SFMono-Regular, Menlo, monospace" font-size="14">- button state</text>
    <text x="418" y="272" fill="#E2E8F0" font-family="ui-monospace, SFMono-Regular, Menlo, monospace" font-size="14">- error message</text>
    <text x="418" y="296" fill="#7DD3FC" font-family="ui-monospace, SFMono-Regular, Menlo, monospace" font-size="16">```</text>

    <rect x="286" y="376" width="148" height="18" rx="9" fill="#334155"/>
  </g>

  <g transform="translate(810 104)" filter="url(#glow)">
    <rect x="0" y="42" width="316" height="390" rx="24" fill="#0F172A" stroke="#334155"/>
    <rect x="24" y="72" width="268" height="84" rx="14" fill="#111827" stroke="#374151"/>
    <text x="40" y="104" fill="#67E8F9" font-family="Inter, Arial, sans-serif" font-size="22" font-weight="700">SNAG → OpenClaw</text>
    <text x="40" y="132" fill="#CBD5E1" font-family="Inter, Arial, sans-serif" font-size="16">Screenshot to Markdown</text>

    <rect x="24" y="176" width="268" height="102" rx="14" fill="#0B1222" stroke="#23324C"/>
    <text x="40" y="212" fill="#E2E8F0" font-family="ui-monospace, Menlo, monospace" font-size="15">$ snag</text>
    <text x="40" y="242" fill="#A5B4FC" font-family="ui-monospace, Menlo, monospace" font-size="15">Captured region ✓</text>
    <text x="40" y="268" fill="#86EFAC" font-family="ui-monospace, Menlo, monospace" font-size="15">Copied to clipboard ✓</text>

    <rect x="24" y="298" width="268" height="110" rx="14" fill="url(#accent)" opacity="0.95"/>
    <text x="40" y="338" fill="#0B1020" font-family="Inter, Arial, sans-serif" font-size="18" font-weight="800">C03 User Case</text>
    <text x="40" y="364" fill="#111827" font-family="Inter, Arial, sans-serif" font-size="14" font-weight="600">Automation &amp; Workflows</text>
    <text x="40" y="386" fill="#111827" font-family="Inter, Arial, sans-serif" font-size="14" font-weight="600">User Cases</text>
  </g>

  <g transform="translate(742 424) rotate(-12)">
    <path d="M30 30C24 24 24 14 30 8C36 2 46 2 52 8L67 23L52 38L30 30Z" fill="#F8FAFC"/>
    <path d="M60 16L89 45" stroke="#F8FAFC" stroke-width="8" stroke-linecap="round"/>
    <path d="M52 38L75 61" stroke="#F8FAFC" stroke-width="8" stroke-linecap="round"/>
    <circle cx="88" cy="46" r="9" fill="#22D3EE"/>
    <circle cx="74" cy="62" r="9" fill="#A78BFA"/>
  </g>
</svg>
